# Blender v2.80 (sub 75) OBJ File: 'Commando Rifle.blend'
# www.blender.org
mtllib Commando Rifle.mtl
o Cube
v 10.000000 1.000000 -1.000000
v 10.000000 -1.000000 -1.000000
v 10.000000 1.000000 1.000000
v 10.000000 -1.000000 1.000000
v -3.000000 1.000000 -1.000000
v -3.000000 -1.000000 -1.000000
v -3.000000 1.000000 1.000000
v -3.000000 -1.000000 1.000000
v -1.650774 -1.000000 -1.000000
v -1.650774 1.000000 1.000000
v -1.650774 -1.000000 1.000000
v -1.650774 1.000000 -1.000000
v -3.000000 -3.001862 -1.000000
v -3.000000 -3.001862 1.000000
v -1.650774 -3.001862 -1.000000
v -1.650774 -3.001862 1.000000
v -6.000000 1.000000 -1.000000
v -6.000000 -1.000000 -1.000000
v -6.000000 1.000000 1.000000
v -6.000000 -1.000000 1.000000
vt 0.568782 0.000000
vt 0.625000 0.000000
vt 0.625000 0.250000
vt 0.568782 0.250000
vt 0.375000 0.443782
vt 0.625000 0.443782
vt 0.625000 0.500000
vt 0.375000 0.500000
vt 0.875000 0.500000
vt 0.625000 0.500000
vt 0.625000 0.500000
vt 0.875000 0.500000
vt 0.431218 0.750000
vt 0.625000 0.750000
vt 0.625000 1.000000
vt 0.431218 1.000000
vt 0.125000 0.500000
vt 0.375000 0.500000
vt 0.375000 0.750000
vt 0.125000 0.750000
vt 0.625000 0.556218
vt 0.875000 0.556218
vt 0.875000 0.750000
vt 0.375000 0.500000
vt 0.375000 0.443782
vt 0.375000 0.250000
vt 0.625000 0.250000
vt 0.375000 0.000000
vt 0.375000 0.250000
vt 0.375000 0.750000
vt 0.431218 0.750000
vt 0.431218 1.000000
vt 0.375000 1.000000
vt 0.625000 0.556218
vt 0.625000 0.500000
vt 0.375000 0.750000
vt 0.375000 0.500000
vt 0.625000 0.500000
vt 0.625000 0.750000
vt 0.375000 0.750000
vt 0.625000 0.000000
vt 0.625000 0.250000
vn 0.0000 1.0000 0.0000
vn 0.0000 0.0000 1.0000
vn 0.0000 0.0000 -1.0000
vn 0.0000 -1.0000 0.0000
vn 1.0000 0.0000 0.0000
vn -1.0000 0.0000 0.0000
usemtl Material
s off
f 12/1/1 5/2/1 7/3/1 10/4/1
f 11/5/2 10/6/2 7/7/2 8/8/2
f 5/9/3 6/10/3 18/11/3 17/12/3
f 9/13/4 2/14/4 4/15/4 11/16/4
f 2/17/5 1/18/5 3/19/5 4/20/5
f 9/21/3 12/22/3 1/23/3 2/14/3
f 6/10/3 5/9/3 12/22/3 9/21/3
f 11/5/2 8/8/2 14/24/2 16/25/2
f 4/26/2 3/27/2 10/6/2 11/5/2
f 1/28/1 12/1/1 10/4/1 3/29/1
f 13/30/4 15/31/4 16/32/4 14/33/4
f 6/10/3 9/21/3 15/34/3 13/35/3
f 9/13/5 11/16/5 16/32/5 15/31/5
f 8/8/6 6/36/6 13/30/6 14/24/6
f 20/37/6 19/38/6 17/39/6 18/40/6
f 8/8/2 7/7/2 19/38/2 20/37/2
f 6/36/4 8/8/4 20/37/4 18/40/4
f 7/3/1 5/2/1 17/41/1 19/42/1
