# Blender v2.80 (sub 75) OBJ File: 'Commando Shotgun.blend'
# www.blender.org
mtllib Commando Shotgun.mtl
o Cube
v 4.000000 1.000000 -1.000000
v 4.000000 -1.000000 -1.000000
v 4.000000 1.000000 1.000000
v 4.000000 -1.000000 1.000000
v -3.000000 1.000000 -1.000000
v -3.000000 -1.000000 -1.000000
v -3.000000 1.000000 1.000000
v -3.000000 -1.000000 1.000000
v -1.650774 -1.000000 -1.000000
v -1.650774 1.000000 1.000000
v -1.650774 -1.000000 1.000000
v -1.650774 1.000000 -1.000000
v -3.000000 -3.001862 -1.000000
v -3.000000 -3.001862 1.000000
v -1.650774 -3.001862 -1.000000
v -1.650774 -3.001862 1.000000
v -4.081778 1.000000 -1.000000
v -4.081778 -1.000000 -1.000000
v -4.081778 1.000000 1.000000
v -4.081778 -1.000000 1.000000
v 2.606755 -1.000000 1.000000
v 2.606755 1.000000 -1.000000
v 2.606755 -1.000000 -1.000000
v 2.606755 1.000000 1.000000
v -5.006370 0.000000 -1.500000
v 5.493630 0.000000 1.500000
v -5.006370 0.000000 1.500000
v 5.493630 0.000000 -1.500000
v 8.202240 1.000000 -1.000000
v 8.202240 -1.000000 -1.000000
v 8.202240 1.000000 1.000000
v 8.202240 -1.000000 1.000000
v -2.982531 0.000000 -1.500000
v -2.982531 0.000000 1.500000
v -6.629037 0.000000 1.500000
v -6.629037 0.000000 -1.500000
v 3.403763 0.000000 1.500000
v 3.403763 0.000000 -1.500000
v 11.796989 0.000000 -1.500000
v 11.796989 0.000000 1.500000
vt 0.568782 0.000000
vt 0.625000 0.000000
vt 0.625000 0.250000
vt 0.568782 0.250000
vt 0.500000 0.443782
vt 0.625000 0.443782
vt 0.625000 0.500000
vt 0.500000 0.500000
vt 0.750000 0.500000
vt 0.625000 0.500000
vt 0.625000 0.500000
vt 0.750000 0.500000
vt 0.528109 1.000000
vt 0.528109 0.750000
vt 0.625000 0.750000
vt 0.125000 0.750000
vt 0.500000 0.250000
vt 0.375000 0.250000
vt 0.375000 0.250000
vt 0.500000 0.250000
vt 0.750000 0.653109
vt 0.875000 0.653109
vt 0.875000 0.750000
vt 0.750000 0.750000
vt 0.875000 0.500000
vt 0.875000 0.556218
vt 0.750000 0.556218
vt 0.375000 0.443782
vt 0.375000 0.500000
vt 0.375000 0.500000
vt 0.375000 0.443782
vt 0.500000 0.346891
vt 0.625000 0.346891
vt 0.471891 0.000000
vt 0.471891 0.250000
vt 0.375000 0.750000
vt 0.431218 0.750000
vt 0.431218 1.000000
vt 0.375000 1.000000
vt 0.625000 0.556218
vt 0.625000 0.556218
vt 0.625000 0.500000
vt 0.431218 0.750000
vt 0.431218 1.000000
vt 0.375000 0.750000
vt 0.500000 0.500000
vt 0.625000 0.500000
vt 0.625000 0.750000
vt 0.500000 0.750000
vt 0.375000 0.500000
vt 0.375000 0.750000
vt 0.625000 0.000000
vt 0.625000 0.250000
vt 0.375000 0.000000
vt 0.375000 0.250000
vt 0.625000 0.250000
vt 0.625000 0.653109
vt 0.750000 0.750000
vt 0.625000 0.750000
vt 0.375000 0.346891
vt 0.125000 0.500000
vt 0.250000 0.500000
vt 0.250000 0.750000
vt 0.125000 0.750000
vt 0.375000 0.500000
vt 0.375000 0.750000
vt 0.875000 0.750000
vt 0.125000 0.500000
vt 0.375000 0.250000
vt 0.375000 0.000000
vt 0.625000 0.250000
vt 0.875000 0.500000
vn 0.0000 1.0000 0.0000
vn 0.0000 0.4472 0.8944
vn 0.0000 -0.4472 -0.8944
vn 0.0000 -1.0000 0.0000
vn 0.0000 -0.4472 0.8944
vn 0.0000 0.4472 -0.8944
vn 0.0000 0.0000 1.0000
vn 0.0000 0.0000 -1.0000
vn 1.0000 0.0000 0.0000
vn -1.0000 0.0000 0.0000
vn -0.3654 0.9308 0.0000
vn 0.2680 -0.9634 0.0000
vn 0.2680 0.9634 0.0000
vn -0.3654 -0.9308 0.0000
usemtl Material
s off
f 12/1/1 5/2/1 7/3/1 10/4/1
f 34/5/2 10/6/2 7/7/2 27/8/2
f 25/9/3 6/10/3 18/11/3 36/12/3
f 21/13/4 23/14/4 2/15/4 4/16/4
f 26/17/5 4/18/5 32/19/5 40/20/5
f 38/21/6 22/22/6 1/23/6 28/24/6
f 25/9/6 5/25/6 12/26/6 33/27/6
f 11/28/7 8/29/7 14/30/7 16/31/7
f 37/32/2 24/33/2 10/6/2 34/5/2
f 22/34/1 12/1/1 10/4/1 24/35/1
f 13/36/4 15/37/4 16/38/4 14/39/4
f 6/10/8 9/40/8 15/41/8 13/42/8
f 9/43/9 11/44/9 16/38/9 15/37/9
f 8/29/10 6/45/10 13/36/10 14/30/10
f 35/46/11 19/47/11 17/48/11 36/49/11
f 27/8/2 7/7/2 19/47/2 35/46/2
f 6/45/4 8/29/4 20/50/4 18/51/4
f 7/3/1 5/2/1 17/52/1 19/53/1
f 1/54/1 22/34/1 24/35/1 3/55/1
f 26/17/2 3/56/2 24/33/2 37/32/2
f 33/27/6 12/26/6 22/22/6 38/21/6
f 9/43/4 23/14/4 21/13/4 11/44/4
f 9/40/3 33/27/3 38/21/3 23/57/3
f 2/15/3 28/24/3 39/58/3 30/59/3
f 4/18/5 26/17/5 37/32/5 21/60/5
f 30/61/12 39/62/12 40/63/12 32/64/12
f 39/62/13 29/65/13 31/66/13 40/63/13
f 28/24/6 1/23/6 29/67/6 39/58/6
f 4/16/4 2/68/4 30/61/4 32/64/4
f 1/54/1 3/55/1 31/69/1 29/70/1
f 8/29/5 27/8/5 35/46/5 20/50/5
f 20/50/14 35/46/14 36/49/14 18/51/14
f 21/60/5 37/32/5 34/5/5 11/28/5
f 6/10/3 25/9/3 33/27/3 9/40/3
f 23/57/3 38/21/3 28/24/3 2/15/3
f 3/56/2 26/17/2 40/20/2 31/71/2
f 5/25/6 25/9/6 36/12/6 17/72/6
f 11/28/5 34/5/5 27/8/5 8/29/5
