# Blender v2.80 (sub 75) OBJ File: 'Commando SMG.blend'
# www.blender.org
mtllib Commando SMG.mtl
o Cube
v 4.000000 1.000000 -1.000000
v 4.000000 -1.000000 -1.000000
v 4.000000 1.000000 1.000000
v 4.000000 -1.000000 1.000000
v -3.000000 1.000000 -1.000000
v -3.000000 -1.000000 -1.000000
v -3.000000 1.000000 1.000000
v -3.000000 -1.000000 1.000000
v -1.650774 -1.000000 -1.000000
v -1.650774 1.000000 1.000000
v -1.650774 -1.000000 1.000000
v -1.650774 1.000000 -1.000000
v -3.000000 -3.001862 -1.000000
v -3.000000 -3.001862 1.000000
v -1.650774 -3.001862 -1.000000
v -1.650774 -3.001862 1.000000
v -4.081778 1.000000 -1.000000
v -4.081778 -1.000000 -1.000000
v -4.081778 1.000000 1.000000
v -4.081778 -1.000000 1.000000
v 2.606755 -1.000000 1.000000
v 2.606755 1.000000 -1.000000
v 2.606755 -1.000000 -1.000000
v 2.606755 1.000000 1.000000
v 4.000000 -3.000000 -1.000000
v 4.000000 -3.000000 1.000000
v 2.606755 -3.000000 1.000000
v 2.606755 -3.000000 -1.000000
v 8.202240 1.000000 -1.000000
v 8.202240 -1.000000 -1.000000
v 8.202240 1.000000 1.000000
v 8.202240 -1.000000 1.000000
vt 0.568782 0.000000
vt 0.625000 0.000000
vt 0.625000 0.250000
vt 0.568782 0.250000
vt 0.375000 0.443782
vt 0.625000 0.443782
vt 0.625000 0.500000
vt 0.375000 0.500000
vt 0.875000 0.500000
vt 0.625000 0.500000
vt 0.625000 0.500000
vt 0.875000 0.500000
vt 0.528109 1.000000
vt 0.528109 0.750000
vt 0.528109 0.750000
vt 0.528109 1.000000
vt 0.625000 0.250000
vt 0.375000 0.250000
vt 0.375000 0.250000
vt 0.625000 0.250000
vt 0.625000 0.653109
vt 0.875000 0.653109
vt 0.875000 0.750000
vt 0.625000 0.750000
vt 0.875000 0.556218
vt 0.625000 0.556218
vt 0.375000 0.500000
vt 0.375000 0.443782
vt 0.375000 0.346891
vt 0.625000 0.346891
vt 0.471891 0.000000
vt 0.471891 0.250000
vt 0.375000 0.750000
vt 0.431218 0.750000
vt 0.431218 1.000000
vt 0.375000 1.000000
vt 0.625000 0.556218
vt 0.625000 0.500000
vt 0.431218 0.750000
vt 0.431218 1.000000
vt 0.375000 0.750000
vt 0.375000 0.500000
vt 0.625000 0.500000
vt 0.625000 0.750000
vt 0.375000 0.750000
vt 0.625000 0.000000
vt 0.625000 0.250000
vt 0.375000 0.000000
vt 0.375000 0.250000
vt 0.625000 0.750000
vt 0.625000 1.000000
vt 0.375000 0.346891
vt 0.375000 0.250000
vt 0.125000 0.500000
vt 0.125000 0.750000
vt 0.125000 0.750000
vt 0.125000 0.500000
vt 0.625000 0.653109
vt 0.125000 0.500000
vt 0.375000 0.500000
vt 0.375000 0.750000
vt 0.125000 0.750000
vt 0.875000 0.750000
vt 0.625000 0.750000
vt 0.375000 0.250000
vt 0.375000 0.000000
vn 0.0000 1.0000 0.0000
vn 0.0000 0.0000 1.0000
vn 0.0000 0.0000 -1.0000
vn -1.0000 0.0000 0.0000
vn 0.0000 -1.0000 0.0000
vn 1.0000 0.0000 0.0000
usemtl Material
s off
f 12/1/1 5/2/1 7/3/1 10/4/1
f 11/5/2 10/6/2 7/7/2 8/8/2
f 5/9/3 6/10/3 18/11/3 17/12/3
f 21/13/4 23/14/4 28/15/4 27/16/4
f 3/17/2 4/18/2 32/19/2 31/20/2
f 23/21/3 22/22/3 1/23/3 2/24/3
f 6/10/3 5/9/3 12/25/3 9/26/3
f 11/5/2 8/8/2 14/27/2 16/28/2
f 21/29/2 24/30/2 10/6/2 11/5/2
f 22/31/1 12/1/1 10/4/1 24/32/1
f 13/33/5 15/34/5 16/35/5 14/36/5
f 6/10/3 9/26/3 15/37/3 13/38/3
f 9/39/6 11/40/6 16/35/6 15/34/6
f 8/8/4 6/41/4 13/33/4 14/27/4
f 20/42/4 19/43/4 17/44/4 18/45/4
f 8/8/2 7/7/2 19/43/2 20/42/2
f 6/41/5 8/8/5 20/42/5 18/45/5
f 7/3/1 5/2/1 17/46/1 19/47/1
f 1/48/1 22/31/1 24/32/1 3/49/1
f 4/18/2 3/17/2 24/30/2 21/29/2
f 9/26/3 12/25/3 22/22/3 23/21/3
f 9/39/5 23/14/5 21/13/5 11/40/5
f 28/15/5 25/50/5 26/51/5 27/16/5
f 4/18/2 21/29/2 27/52/2 26/53/2
f 2/54/6 4/55/6 26/56/6 25/57/6
f 23/21/3 2/24/3 25/50/3 28/58/3
f 30/59/6 29/60/6 31/61/6 32/62/6
f 2/24/3 1/23/3 29/63/3 30/64/3
f 4/55/5 2/54/5 30/59/5 32/62/5
f 1/48/1 3/49/1 31/65/1 29/66/1
