# Blender v2.80 (sub 75) OBJ File: 'Commando Sniperrifle.blend'
# www.blender.org
mtllib Commando Sniperrifle.mtl
o Cube_Cube.001
v -6.000000 -1.000000 1.000000
v -6.000000 1.000000 1.000000
v -6.000000 -1.000000 -1.000000
v -6.000000 1.000000 -1.000000
v 6.000000 -1.000000 1.000000
v 6.000000 1.000000 1.000000
v 6.000000 -1.000000 -1.000000
v 6.000000 1.000000 -1.000000
v 0.000000 -1.000000 -1.000000
v 0.000000 1.000000 -1.000000
v 0.000000 -1.000000 1.000000
v 0.000000 1.000000 1.000000
v 1.500000 1.000000 -1.000000
v 1.500000 -1.000000 1.000000
v 1.500000 -1.000000 -1.000000
v 1.500000 1.000000 1.000000
v -1.500000 -1.000000 -1.000000
v -1.500000 1.000000 1.000000
v -1.500000 1.000000 -1.000000
v -1.500000 -1.000000 1.000000
v 0.000000 1.643626 -1.000000
v 0.000000 1.643626 1.000000
v 1.500000 1.643626 -1.000000
v 1.500000 1.643626 1.000000
v -1.500000 1.643626 1.000000
v -1.500000 1.643626 -1.000000
vt 0.375000 0.000000
vt 0.625000 0.000000
vt 0.625000 0.250000
vt 0.375000 0.250000
vt 0.375000 0.406250
vt 0.625000 0.406250
vt 0.625000 0.500000
vt 0.375000 0.500000
vt 0.625000 0.750000
vt 0.375000 0.750000
vt 0.375000 0.906250
vt 0.625000 0.906250
vt 0.625000 1.000000
vt 0.375000 1.000000
vt 0.281250 0.500000
vt 0.281250 0.750000
vt 0.781250 0.500000
vt 0.875000 0.500000
vt 0.875000 0.750000
vt 0.781250 0.750000
vt 0.625000 0.375000
vt 0.625000 0.343750
vt 0.625000 0.343750
vt 0.625000 0.375000
vt 0.218750 0.500000
vt 0.250000 0.500000
vt 0.250000 0.750000
vt 0.218750 0.750000
vt 0.375000 0.843750
vt 0.625000 0.843750
vt 0.625000 0.875000
vt 0.375000 0.875000
vt 0.375000 0.343750
vt 0.375000 0.375000
vt 0.718750 0.500000
vt 0.718750 0.750000
vt 0.125000 0.500000
vt 0.125000 0.750000
vt 0.625000 0.843750
vt 0.625000 0.875000
vt 0.718750 0.500000
vt 0.750000 0.500000
vt 0.750000 0.750000
vt 0.718750 0.750000
vt 0.781250 0.500000
vt 0.781250 0.750000
vt 0.625000 0.406250
vt 0.625000 0.906250
vn -1.0000 0.0000 0.0000
vn 0.0000 0.0000 -1.0000
vn 1.0000 0.0000 0.0000
vn 0.0000 0.0000 1.0000
vn 0.0000 -1.0000 0.0000
vn 0.0000 1.0000 0.0000
usemtl None
s off
f 1/1/1 2/2/1 4/3/1 3/4/1
f 15/5/2 13/6/2 8/7/2 7/8/2
f 7/8/3 8/7/3 6/9/3 5/10/3
f 20/11/4 18/12/4 2/13/4 1/14/4
f 15/15/5 7/8/5 5/10/5 14/16/5
f 19/17/6 4/18/6 2/19/6 18/20/6
f 10/21/2 19/22/2 26/23/2 21/24/2
f 17/25/5 9/26/5 11/27/5 20/28/5
f 14/29/4 16/30/4 12/31/4 11/32/4
f 17/33/2 19/22/2 10/21/2 9/34/2
f 5/10/4 6/9/4 16/30/4 14/29/4
f 8/7/6 13/35/6 16/36/6 6/9/6
f 9/26/5 15/15/5 14/16/5 11/27/5
f 9/34/2 10/21/2 13/6/2 15/5/2
f 3/4/2 4/3/2 19/22/2 17/33/2
f 3/37/5 17/25/5 20/28/5 1/38/5
f 12/31/4 16/30/4 24/39/4 22/40/4
f 11/32/4 12/31/4 18/12/4 20/11/4
f 23/41/6 21/42/6 22/43/6 24/44/6
f 21/42/6 26/45/6 25/46/6 22/43/6
f 13/6/2 10/21/2 21/24/2 23/47/2
f 18/12/4 12/31/4 22/40/4 25/48/4
f 16/36/3 13/35/3 23/41/3 24/44/3
f 19/17/1 18/20/1 25/46/1 26/45/1
