# Blender v2.80 (sub 75) OBJ File: 'Sathori Rifle.blend'
# www.blender.org
mtllib Sathori Rifle.mtl
o Cube
v 0.432807 1.362391 -0.651878
v 0.471228 -0.968811 -0.374028
v 0.432807 1.362391 0.651878
v 0.471228 -0.968811 0.374028
v 0.747519 1.451423 1.949523
v 1.015427 1.451423 -1.949523
v 0.680753 1.962935 1.949523
v 1.022070 1.962935 -1.949523
v 0.745557 1.451423 3.617957
v 0.678252 1.962935 3.617957
v 0.309239 1.451423 -7.782310
v 0.369726 1.962935 -7.782310
v 0.195377 1.596920 -7.782310
v 0.182904 1.860038 -7.782310
v 0.168456 1.596920 -8.295197
v 0.155983 1.860038 -8.295197
v 0.513013 1.362391 0.000000
v 0.593039 -0.968811 0.000000
v 1.086501 1.451423 0.000000
v 1.112618 1.962935 0.000000
v -0.432807 1.362391 -0.651878
v -0.471228 -0.968811 -0.374028
v -0.432807 1.362391 0.651878
v -0.471228 -0.968811 0.374028
v 0.000000 1.328887 -1.949523
v 0.000000 1.328887 1.949523
v -0.747519 1.451423 1.949523
v -1.015427 1.451423 -1.949523
v 0.000000 -0.968811 -0.436705
v 0.000000 1.359885 0.670452
v 0.000000 -0.968811 0.436705
v 0.000000 1.359885 -0.670452
v 0.000000 2.260921 -1.949523
v 0.000000 2.260921 1.949523
v -0.680753 1.962935 1.949523
v -1.022070 1.962935 -1.949523
v 0.000000 1.328887 3.617957
v -0.745557 1.451423 3.617957
v 0.000000 2.260921 3.617957
v -0.678252 1.962935 3.617957
v 0.000000 1.368685 -7.782310
v -0.309239 1.451423 -7.782310
v 0.000000 2.186701 -7.782310
v -0.369726 1.962935 -7.782310
v 0.000000 1.559954 -7.782310
v -0.195377 1.596920 -7.782310
v 0.000000 1.950070 -7.782310
v -0.182904 1.860038 -7.782310
v 0.000000 1.559954 -8.295197
v -0.168456 1.596920 -8.295197
v 0.000000 1.950070 -8.295197
v -0.155983 1.860038 -8.295197
v 0.000000 2.260921 0.000000
v -0.513013 1.362391 0.000000
v -0.593039 -0.968811 0.000000
v -1.086501 1.451423 0.000000
v 0.000000 -0.968811 0.000000
v -1.112618 1.962935 0.000000
vt 0.375000 0.625000
vt 0.375000 0.500000
vt 0.375000 0.500000
vt 0.375000 0.625000
vt 0.500000 0.000000
vt 0.375000 0.000000
vt 0.375000 0.000000
vt 0.500000 0.000000
vt 0.375000 0.125000
vt 0.500000 0.125000
vt 0.500000 0.250000
vt 0.375000 0.250000
vt 0.500000 0.875000
vt 0.625000 0.875000
vt 0.625000 1.000000
vt 0.500000 1.000000
vt 0.125000 0.625000
vt 0.375000 0.750000
vt 0.125000 0.750000
vt 0.625000 0.625000
vt 0.875000 0.625000
vt 0.875000 0.750000
vt 0.625000 0.750000
vt 0.500000 0.250000
vt 0.375000 0.250000
vt 0.625000 0.375000
vt 0.625000 0.250000
vt 0.625000 0.250000
vt 0.625000 0.375000
vt 0.375000 0.250000
vt 0.375000 0.375000
vt 0.875000 0.625000
vt 0.875000 0.750000
vt 0.375000 0.500000
vt 0.375000 0.625000
vt 0.625000 0.375000
vt 0.625000 0.250000
vt 0.625000 0.250000
vt 0.625000 0.375000
vt 0.375000 0.750000
vt 0.375000 0.750000
vt 0.375000 0.750000
vt 0.375000 0.750000
vt 0.375000 0.500000
vt 0.375000 0.500000
vt 0.375000 0.500000
vt 0.375000 0.500000
vt 0.875000 0.625000
vt 0.875000 0.750000
vt 0.875000 0.750000
vt 0.875000 0.625000
vt 0.875000 0.625000
vt 0.875000 0.750000
vt 0.375000 0.000000
vt 0.500000 0.000000
vt 0.875000 0.625000
vt 0.875000 0.750000
vt 0.375000 0.500000
vt 0.375000 0.500000
vt 0.375000 0.000000
vt 0.500000 0.000000
vt 0.125000 0.500000
vt 0.500000 0.750000
vt 0.375000 0.625000
vt 0.375000 0.625000
vt 0.375000 0.500000
vt 0.375000 0.500000
vt 0.375000 0.000000
vt 0.375000 0.000000
vt 0.375000 0.125000
vt 0.375000 0.250000
vt 0.625000 1.000000
vt 0.625000 0.875000
vt 0.125000 0.625000
vt 0.125000 0.750000
vt 0.375000 0.750000
vt 0.625000 0.750000
vt 0.875000 0.750000
vt 0.375000 0.250000
vt 0.625000 0.250000
vt 0.625000 0.250000
vt 0.375000 0.250000
vt 0.875000 0.750000
vt 0.375000 0.625000
vt 0.375000 0.500000
vt 0.625000 0.250000
vt 0.625000 0.250000
vt 0.375000 0.750000
vt 0.375000 0.750000
vt 0.375000 0.750000
vt 0.375000 0.750000
vt 0.375000 0.500000
vt 0.375000 0.500000
vt 0.375000 0.500000
vt 0.375000 0.500000
vt 0.875000 0.750000
vt 0.875000 0.750000
vt 0.875000 0.750000
vt 0.375000 0.000000
vt 0.875000 0.750000
vt 0.375000 0.500000
vt 0.375000 0.500000
vt 0.375000 0.000000
vt 0.125000 0.500000
vn 0.1431 -0.9897 -0.0083
vn 0.3509 0.9361 -0.0256
vn 0.3152 0.9484 0.0349
vn 0.0000 -1.0000 -0.0000
vn 0.9811 0.0134 0.1932
vn 0.0893 -0.1080 -0.9901
vn 0.4016 0.9158 0.0003
vn 0.1055 -0.9944 0.0095
vn 0.0893 -0.1080 0.9901
vn 0.0861 -0.9963 -0.0030
vn 0.9986 -0.0320 -0.0414
vn 0.0000 -0.0000 1.0000
vn 0.1620 -0.9868 0.0001
vn 0.9915 0.1299 0.0013
vn 0.0000 0.0000 -1.0000
vn 0.1531 -0.9881 -0.0126
vn 0.9912 -0.0650 -0.1154
vn 0.1991 -0.9800 -0.0052
vn 0.9975 0.0473 -0.0524
vn 0.4692 0.8830 -0.0123
vn 0.9803 0.0390 0.1938
vn 0.9811 0.0134 -0.1932
vn 0.2689 0.9631 -0.0062
vn 0.1601 -0.9868 0.0258
vn -0.1431 -0.9897 -0.0083
vn -0.3509 0.9361 -0.0256
vn -0.3152 0.9484 0.0349
vn -0.9811 0.0134 0.1932
vn -0.0893 -0.1080 -0.9901
vn -0.4016 0.9158 0.0003
vn -0.1055 -0.9944 0.0095
vn -0.0893 -0.1080 0.9901
vn -0.0861 -0.9963 -0.0030
vn -0.9986 -0.0320 -0.0414
vn -0.1620 -0.9868 0.0001
vn -0.9915 0.1299 0.0013
vn -0.1531 -0.9881 -0.0126
vn -0.9912 -0.0650 -0.1154
vn -0.1991 -0.9800 -0.0052
vn -0.9975 0.0473 -0.0524
vn -0.4692 0.8830 -0.0123
vn -0.9803 0.0390 0.1938
vn -0.9811 0.0134 -0.1932
vn -0.2689 0.9631 -0.0062
vn -0.1601 -0.9868 0.0258
usemtl Material
s off
f 17/1/1 1/2/1 6/3/1 19/4/1
f 33/5/2 8/6/2 12/7/2 43/8/2
f 20/9/3 53/10/3 34/11/3 7/12/3
f 57/13/4 18/14/4 4/15/4 31/16/4
f 18/17/5 17/1/5 3/18/5 4/19/5
f 29/20/6 32/21/6 1/22/6 2/23/6
f 7/12/7 34/11/7 39/24/7 10/25/7
f 30/26/8 3/27/8 5/28/8 26/29/8
f 4/30/9 3/27/9 30/26/9 31/31/9
f 1/22/10 32/21/10 25/32/10 6/33/10
f 19/4/11 6/3/11 8/34/11 20/35/11
f 37/36/12 9/37/12 10/38/12 39/39/12
f 26/29/13 5/28/13 9/37/13 37/36/13
f 5/40/14 7/41/14 10/42/14 9/43/14
f 12/44/15 11/45/15 13/46/15 14/47/15
f 6/33/16 25/32/16 41/48/16 11/49/16
f 8/34/17 6/3/17 11/45/17 12/44/17
f 13/50/18 45/51/18 49/52/18 15/53/18
f 43/8/15 12/7/15 14/54/15 47/55/15
f 11/49/15 41/48/15 45/51/15 13/50/15
f 15/53/15 49/52/15 51/56/15 16/57/15
f 14/47/19 13/46/19 15/58/19 16/59/19
f 47/55/20 14/54/20 16/60/20 51/61/20
f 5/40/21 19/4/21 20/35/21 7/41/21
f 2/62/22 1/2/22 17/1/22 18/17/22
f 29/63/4 2/23/4 18/14/4 57/13/4
f 8/6/23 33/5/23 53/10/23 20/9/23
f 3/18/24 17/1/24 19/4/24 5/40/24
f 54/64/25 56/65/25 28/66/25 21/67/25
f 33/5/26 43/8/26 44/68/26 36/69/26
f 58/70/27 35/71/27 34/11/27 53/10/27
f 57/13/4 31/16/4 24/72/4 55/73/4
f 55/74/28 24/75/28 23/76/28 54/64/28
f 29/20/29 22/77/29 21/78/29 32/21/29
f 35/71/30 40/79/30 39/24/30 34/11/30
f 30/26/31 26/29/31 27/80/31 23/81/31
f 24/82/32 31/31/32 30/26/32 23/81/32
f 21/78/33 28/83/33 25/32/33 32/21/33
f 56/65/34 58/84/34 36/85/34 28/66/34
f 37/36/12 39/39/12 40/86/12 38/87/12
f 26/29/35 37/36/35 38/87/35 27/80/35
f 27/88/36 38/89/36 40/90/36 35/91/36
f 44/92/15 48/93/15 46/94/15 42/95/15
f 28/83/37 42/96/37 41/48/37 25/32/37
f 36/85/38 44/92/38 42/95/38 28/66/38
f 46/97/39 50/98/39 49/52/39 45/51/39
f 43/8/15 47/55/15 48/99/15 44/68/15
f 42/96/15 46/97/15 45/51/15 41/48/15
f 50/98/15 52/100/15 51/56/15 49/52/15
f 48/93/40 52/101/40 50/102/40 46/94/40
f 47/55/41 51/61/41 52/103/41 48/99/41
f 27/88/42 35/91/42 58/84/42 56/65/42
f 22/104/43 55/74/43 54/64/43 21/67/43
f 29/63/4 57/13/4 55/73/4 22/77/4
f 36/69/44 58/70/44 53/10/44 33/5/44
f 23/76/45 27/88/45 56/65/45 54/64/45
