# Blender v2.80 (sub 75) OBJ File: 'Sathori Pistol.blend'
# www.blender.org
mtllib Sathori Pistol.mtl
o Cube
v 0.754422 2.000000 -0.754422
v 0.754422 -2.000000 -0.754422
v 0.754422 2.000000 0.754422
v 0.754422 -2.000000 0.754422
v -0.754422 2.000000 -0.754422
v -0.754422 -2.000000 -0.754422
v -0.754422 2.000000 0.754422
v -0.754422 -2.000000 0.754422
v -0.095625 4.000000 -1.000000
v -0.095625 4.000000 1.000000
v -1.000000 3.775789 -1.000000
v -1.000000 3.775789 1.000000
v 5.000000 2.348820 -0.651180
v 5.000000 2.348820 0.651180
v 5.000000 3.651180 -0.651180
v 5.000000 3.651180 0.651180
v -1.500000 2.868857 -0.497982
v -1.500000 2.868857 0.497982
v -1.500000 3.640610 -0.497982
v -1.500000 3.640610 0.497982
v 5.000000 2.691133 -0.308867
v 5.000000 2.691133 0.308867
v 5.000000 3.308867 -0.308867
v 5.000000 3.308867 0.308867
v 5.470999 2.808673 -0.191327
v 5.470999 2.808673 0.191327
v 5.470999 3.191327 -0.191327
v 5.470999 3.191327 0.191327
vt 0.625000 0.500000
vt 0.625000 0.250000
vt 0.625000 0.250000
vt 0.625000 0.500000
vt 0.375000 0.250000
vt 0.375000 0.500000
vt 0.625000 0.750000
vt 0.375000 0.750000
vt 0.625000 0.750000
vt 0.625000 1.000000
vt 0.375000 1.000000
vt 0.125000 0.500000
vt 0.375000 0.500000
vt 0.375000 0.750000
vt 0.125000 0.750000
vt 0.625000 0.500000
vt 0.875000 0.500000
vt 0.875000 0.750000
vt 0.375000 0.000000
vt 0.625000 0.000000
vt 0.625000 0.250000
vt 0.375000 0.250000
vt 0.625000 0.500000
vt 0.625000 0.500000
vt 0.375000 0.250000
vt 0.375000 0.000000
vt 0.875000 0.500000
vt 0.875000 0.750000
vt 0.625000 0.250000
vt 0.625000 0.250000
vt 0.625000 0.250000
vt 0.625000 0.250000
vt 0.375000 0.500000
vt 0.375000 0.750000
vt 0.875000 0.750000
vt 0.875000 0.750000
vt 0.625000 0.750000
vt 0.625000 0.750000
vt 0.875000 0.500000
vt 0.875000 0.500000
vt 0.259000 0.000051
vt 0.259000 0.999949
vt 0.000051 0.748966
vt 0.000051 0.251034
vt 0.875000 0.750000
vt 0.875000 0.750000
vt 0.875000 0.750000
vt 0.875000 0.750000
vt 0.375000 0.500000
vt 0.375000 0.750000
vt 0.375000 0.250000
vt 0.375000 0.000000
vt 0.375000 0.750000
vt 0.375000 0.500000
vt 0.375000 0.500000
vt 0.375000 0.750000
vt 0.375000 0.250000
vt 0.375000 0.000000
vt 0.625000 0.250000
vt 0.625000 0.250000
vn 0.0117 -0.1257 0.9920
vn 0.0000 0.0000 1.0000
vn -1.0000 0.0000 0.0000
vn 0.0000 -1.0000 0.0000
vn 1.0000 0.0000 0.0000
vn 0.0000 0.0000 -1.0000
vn -0.2406 0.9706 0.0000
vn -0.5715 -0.1331 0.8097
vn 0.0683 0.9977 0.0000
vn 0.0117 -0.1257 -0.9920
vn 0.0819 -0.9966 0.0000
vn 0.0482 -0.0617 0.9969
vn 0.0482 -0.0617 -0.9969
vn -0.7589 -0.6512 0.0000
vn -0.5715 -0.1331 -0.8097
vn -0.2610 0.9653 0.0000
vn 0.2421 0.0000 -0.9702
vn 0.2421 0.9702 0.0000
vn 0.2421 0.0000 0.9702
vn 0.2421 -0.9702 0.0000
usemtl Material
s off
f 7/1/1 3/2/1 10/3/1 12/4/1
f 4/5/2 3/2/2 7/1/2 8/6/2
f 8/6/3 7/1/3 5/7/3 6/8/3
f 6/8/4 2/9/4 4/10/4 8/11/4
f 2/12/5 1/13/5 3/14/5 4/15/5
f 6/16/6 5/17/6 1/18/6 2/9/6
f 9/19/7 11/20/7 12/21/7 10/22/7
f 7/1/8 12/4/8 20/23/8 18/24/8
f 9/19/9 10/22/9 16/25/9 15/26/9
f 1/18/10 5/17/10 11/27/10 9/28/10
f 16/29/5 14/30/5 22/31/5 24/32/5
f 3/14/11 1/13/11 13/33/11 14/34/11
f 10/3/12 3/2/12 14/30/12 16/29/12
f 1/18/13 9/28/13 15/35/13 13/36/13
f 17/37/3 18/24/3 20/23/3 19/38/3
f 5/7/14 7/1/14 18/24/14 17/37/14
f 11/27/15 5/17/15 17/39/15 19/40/15
f 12/41/16 11/42/16 19/43/16 20/44/16
f 21/45/17 23/46/17 27/47/17 25/48/17
f 14/34/5 13/33/5 21/49/5 22/50/5
f 13/36/5 15/35/5 23/46/5 21/45/5
f 15/26/5 16/25/5 24/51/5 23/52/5
f 26/53/5 25/54/5 27/55/5 28/56/5
f 23/52/18 24/51/18 28/57/18 27/58/18
f 24/32/19 22/31/19 26/59/19 28/60/19
f 22/50/20 21/49/20 25/54/20 26/53/20
